<mxfile host="app.diagrams.net" agent="Mozilla/5.0 (Macintosh; Intel Mac OS X 10_15_7) AppleWebKit/537.36 (KHTML, like Gecko) Chrome/131.0.0.0 Safari/537.36" version="24.8.6">
  <diagram name="Page-1" id="nmBjvdbm3BXFWPhbe7CF">
    <mxGraphModel dx="2261" dy="761" grid="1" gridSize="10" guides="1" tooltips="1" connect="1" arrows="1" fold="1" page="1" pageScale="1" pageWidth="827" pageHeight="1169" math="0" shadow="0">
      <root>
        <mxCell id="0" />
        <mxCell id="1" parent="0" />
        <mxCell id="1fYOlu2X82X64J7lEpXC-37" style="edgeStyle=orthogonalEdgeStyle;rounded=0;orthogonalLoop=1;jettySize=auto;html=1;exitX=0.855;exitY=1;exitDx=0;exitDy=-4.35;exitPerimeter=0;entryX=0.75;entryY=0;entryDx=0;entryDy=0;" edge="1" parent="1" source="1fYOlu2X82X64J7lEpXC-1" target="1fYOlu2X82X64J7lEpXC-36">
          <mxGeometry relative="1" as="geometry" />
        </mxCell>
        <mxCell id="1fYOlu2X82X64J7lEpXC-1" value="" style="shape=cylinder3;whiteSpace=wrap;html=1;boundedLbl=1;backgroundOutline=1;size=15;fillColor=#dae8fc;strokeColor=#6c8ebf;" vertex="1" parent="1">
          <mxGeometry x="320" y="130" width="240" height="250" as="geometry" />
        </mxCell>
        <mxCell id="1fYOlu2X82X64J7lEpXC-2" value="Distributed system to store the documents and inverted indexes" style="text;html=1;align=center;verticalAlign=middle;resizable=0;points=[];autosize=1;strokeColor=none;fillColor=none;" vertex="1" parent="1">
          <mxGeometry x="260" y="88" width="360" height="30" as="geometry" />
        </mxCell>
        <mxCell id="1fYOlu2X82X64J7lEpXC-3" value="" style="html=1;verticalLabelPosition=bottom;align=center;labelBackgroundColor=#ffffff;verticalAlign=top;strokeWidth=2;strokeColor=#0080F0;shadow=0;dashed=0;shape=mxgraph.ios7.icons.documents;" vertex="1" parent="1">
          <mxGeometry x="480" y="190" width="22.5" height="30" as="geometry" />
        </mxCell>
        <mxCell id="1fYOlu2X82X64J7lEpXC-4" value="" style="html=1;verticalLabelPosition=bottom;align=center;labelBackgroundColor=#ffffff;verticalAlign=top;strokeWidth=2;strokeColor=#0080F0;shadow=0;dashed=0;shape=mxgraph.ios7.icons.documents;" vertex="1" parent="1">
          <mxGeometry x="480" y="250" width="22.5" height="30" as="geometry" />
        </mxCell>
        <mxCell id="1fYOlu2X82X64J7lEpXC-5" value="" style="html=1;verticalLabelPosition=bottom;align=center;labelBackgroundColor=#ffffff;verticalAlign=top;strokeWidth=2;strokeColor=#0080F0;shadow=0;dashed=0;shape=mxgraph.ios7.icons.documents;" vertex="1" parent="1">
          <mxGeometry x="480" y="305" width="22.5" height="30" as="geometry" />
        </mxCell>
        <mxCell id="1fYOlu2X82X64J7lEpXC-19" value="" style="shape=table;startSize=0;container=1;collapsible=0;childLayout=tableLayout;fontSize=16;" vertex="1" parent="1">
          <mxGeometry x="354" y="220" width="60" height="95" as="geometry" />
        </mxCell>
        <mxCell id="1fYOlu2X82X64J7lEpXC-20" value="" style="shape=tableRow;horizontal=0;startSize=0;swimlaneHead=0;swimlaneBody=0;strokeColor=inherit;top=0;left=0;bottom=0;right=0;collapsible=0;dropTarget=0;fillColor=none;points=[[0,0.5],[1,0.5]];portConstraint=eastwest;fontSize=16;" vertex="1" parent="1fYOlu2X82X64J7lEpXC-19">
          <mxGeometry width="60" height="32" as="geometry" />
        </mxCell>
        <mxCell id="1fYOlu2X82X64J7lEpXC-21" value="" style="shape=partialRectangle;html=1;whiteSpace=wrap;connectable=0;strokeColor=inherit;overflow=hidden;fillColor=none;top=0;left=0;bottom=0;right=0;pointerEvents=1;fontSize=16;" vertex="1" parent="1fYOlu2X82X64J7lEpXC-20">
          <mxGeometry width="20" height="32" as="geometry">
            <mxRectangle width="20" height="32" as="alternateBounds" />
          </mxGeometry>
        </mxCell>
        <mxCell id="1fYOlu2X82X64J7lEpXC-22" value="" style="shape=partialRectangle;html=1;whiteSpace=wrap;connectable=0;strokeColor=inherit;overflow=hidden;fillColor=none;top=0;left=0;bottom=0;right=0;pointerEvents=1;fontSize=16;" vertex="1" parent="1fYOlu2X82X64J7lEpXC-20">
          <mxGeometry x="20" width="20" height="32" as="geometry">
            <mxRectangle width="20" height="32" as="alternateBounds" />
          </mxGeometry>
        </mxCell>
        <mxCell id="1fYOlu2X82X64J7lEpXC-23" value="" style="shape=partialRectangle;html=1;whiteSpace=wrap;connectable=0;strokeColor=inherit;overflow=hidden;fillColor=none;top=0;left=0;bottom=0;right=0;pointerEvents=1;fontSize=16;" vertex="1" parent="1fYOlu2X82X64J7lEpXC-20">
          <mxGeometry x="40" width="20" height="32" as="geometry">
            <mxRectangle width="20" height="32" as="alternateBounds" />
          </mxGeometry>
        </mxCell>
        <mxCell id="1fYOlu2X82X64J7lEpXC-24" value="" style="shape=tableRow;horizontal=0;startSize=0;swimlaneHead=0;swimlaneBody=0;strokeColor=inherit;top=0;left=0;bottom=0;right=0;collapsible=0;dropTarget=0;fillColor=none;points=[[0,0.5],[1,0.5]];portConstraint=eastwest;fontSize=16;" vertex="1" parent="1fYOlu2X82X64J7lEpXC-19">
          <mxGeometry y="32" width="60" height="31" as="geometry" />
        </mxCell>
        <mxCell id="1fYOlu2X82X64J7lEpXC-25" value="" style="shape=partialRectangle;html=1;whiteSpace=wrap;connectable=0;strokeColor=inherit;overflow=hidden;fillColor=none;top=0;left=0;bottom=0;right=0;pointerEvents=1;fontSize=16;" vertex="1" parent="1fYOlu2X82X64J7lEpXC-24">
          <mxGeometry width="20" height="31" as="geometry">
            <mxRectangle width="20" height="31" as="alternateBounds" />
          </mxGeometry>
        </mxCell>
        <mxCell id="1fYOlu2X82X64J7lEpXC-26" value="" style="shape=partialRectangle;html=1;whiteSpace=wrap;connectable=0;strokeColor=inherit;overflow=hidden;fillColor=none;top=0;left=0;bottom=0;right=0;pointerEvents=1;fontSize=16;" vertex="1" parent="1fYOlu2X82X64J7lEpXC-24">
          <mxGeometry x="20" width="20" height="31" as="geometry">
            <mxRectangle width="20" height="31" as="alternateBounds" />
          </mxGeometry>
        </mxCell>
        <mxCell id="1fYOlu2X82X64J7lEpXC-27" value="" style="shape=partialRectangle;html=1;whiteSpace=wrap;connectable=0;strokeColor=inherit;overflow=hidden;fillColor=none;top=0;left=0;bottom=0;right=0;pointerEvents=1;fontSize=16;" vertex="1" parent="1fYOlu2X82X64J7lEpXC-24">
          <mxGeometry x="40" width="20" height="31" as="geometry">
            <mxRectangle width="20" height="31" as="alternateBounds" />
          </mxGeometry>
        </mxCell>
        <mxCell id="1fYOlu2X82X64J7lEpXC-28" value="" style="shape=tableRow;horizontal=0;startSize=0;swimlaneHead=0;swimlaneBody=0;strokeColor=inherit;top=0;left=0;bottom=0;right=0;collapsible=0;dropTarget=0;fillColor=none;points=[[0,0.5],[1,0.5]];portConstraint=eastwest;fontSize=16;" vertex="1" parent="1fYOlu2X82X64J7lEpXC-19">
          <mxGeometry y="63" width="60" height="32" as="geometry" />
        </mxCell>
        <mxCell id="1fYOlu2X82X64J7lEpXC-29" value="" style="shape=partialRectangle;html=1;whiteSpace=wrap;connectable=0;strokeColor=inherit;overflow=hidden;fillColor=none;top=0;left=0;bottom=0;right=0;pointerEvents=1;fontSize=16;" vertex="1" parent="1fYOlu2X82X64J7lEpXC-28">
          <mxGeometry width="20" height="32" as="geometry">
            <mxRectangle width="20" height="32" as="alternateBounds" />
          </mxGeometry>
        </mxCell>
        <mxCell id="1fYOlu2X82X64J7lEpXC-30" value="" style="shape=partialRectangle;html=1;whiteSpace=wrap;connectable=0;strokeColor=inherit;overflow=hidden;fillColor=none;top=0;left=0;bottom=0;right=0;pointerEvents=1;fontSize=16;" vertex="1" parent="1fYOlu2X82X64J7lEpXC-28">
          <mxGeometry x="20" width="20" height="32" as="geometry">
            <mxRectangle width="20" height="32" as="alternateBounds" />
          </mxGeometry>
        </mxCell>
        <mxCell id="1fYOlu2X82X64J7lEpXC-31" value="" style="shape=partialRectangle;html=1;whiteSpace=wrap;connectable=0;strokeColor=inherit;overflow=hidden;fillColor=none;top=0;left=0;bottom=0;right=0;pointerEvents=1;fontSize=16;" vertex="1" parent="1fYOlu2X82X64J7lEpXC-28">
          <mxGeometry x="40" width="20" height="32" as="geometry">
            <mxRectangle width="20" height="32" as="alternateBounds" />
          </mxGeometry>
        </mxCell>
        <mxCell id="1fYOlu2X82X64J7lEpXC-32" value="Crawler like jobs to create documents and send to distributed storage" style="rounded=0;whiteSpace=wrap;html=1;" vertex="1" parent="1">
          <mxGeometry x="660" y="470" width="170" height="70" as="geometry" />
        </mxCell>
        <mxCell id="1fYOlu2X82X64J7lEpXC-33" style="edgeStyle=orthogonalEdgeStyle;rounded=0;orthogonalLoop=1;jettySize=auto;html=1;entryX=1;entryY=0.5;entryDx=0;entryDy=0;entryPerimeter=0;" edge="1" parent="1" source="1fYOlu2X82X64J7lEpXC-32" target="1fYOlu2X82X64J7lEpXC-1">
          <mxGeometry relative="1" as="geometry" />
        </mxCell>
        <mxCell id="1fYOlu2X82X64J7lEpXC-34" value="Documents" style="text;html=1;align=center;verticalAlign=middle;resizable=0;points=[];autosize=1;strokeColor=none;fillColor=none;" vertex="1" parent="1">
          <mxGeometry x="605" y="335" width="80" height="30" as="geometry" />
        </mxCell>
        <mxCell id="1fYOlu2X82X64J7lEpXC-39" style="edgeStyle=orthogonalEdgeStyle;rounded=0;orthogonalLoop=1;jettySize=auto;html=1;exitX=0.75;exitY=1;exitDx=0;exitDy=0;entryX=0.75;entryY=0;entryDx=0;entryDy=0;" edge="1" parent="1" source="1fYOlu2X82X64J7lEpXC-36" target="1fYOlu2X82X64J7lEpXC-38">
          <mxGeometry relative="1" as="geometry" />
        </mxCell>
        <mxCell id="1fYOlu2X82X64J7lEpXC-36" value="Indexer" style="shape=process;whiteSpace=wrap;html=1;backgroundOutline=1;fillColor=#ffe6cc;strokeColor=#d79b00;" vertex="1" parent="1">
          <mxGeometry x="330" y="440" width="220" height="70" as="geometry" />
        </mxCell>
        <mxCell id="1fYOlu2X82X64J7lEpXC-38" value="Distributed data processing system like MapReduce for creating inverted indices" style="rounded=0;whiteSpace=wrap;html=1;fillColor=#e1d5e7;strokeColor=#9673a6;" vertex="1" parent="1">
          <mxGeometry x="385" y="580" width="110" height="100" as="geometry" />
        </mxCell>
        <mxCell id="1fYOlu2X82X64J7lEpXC-40" style="edgeStyle=orthogonalEdgeStyle;rounded=0;orthogonalLoop=1;jettySize=auto;html=1;exitX=0.25;exitY=0;exitDx=0;exitDy=0;entryX=0.282;entryY=1.029;entryDx=0;entryDy=0;entryPerimeter=0;" edge="1" parent="1" source="1fYOlu2X82X64J7lEpXC-38" target="1fYOlu2X82X64J7lEpXC-36">
          <mxGeometry relative="1" as="geometry" />
        </mxCell>
        <mxCell id="1fYOlu2X82X64J7lEpXC-41" style="edgeStyle=orthogonalEdgeStyle;rounded=0;orthogonalLoop=1;jettySize=auto;html=1;exitX=0.25;exitY=0;exitDx=0;exitDy=0;entryX=0.271;entryY=0.996;entryDx=0;entryDy=0;entryPerimeter=0;" edge="1" parent="1" source="1fYOlu2X82X64J7lEpXC-36" target="1fYOlu2X82X64J7lEpXC-1">
          <mxGeometry relative="1" as="geometry">
            <mxPoint x="370" y="420" as="targetPoint" />
          </mxGeometry>
        </mxCell>
        <mxCell id="1fYOlu2X82X64J7lEpXC-42" value="" style="endArrow=none;dashed=1;html=1;rounded=0;" edge="1" parent="1">
          <mxGeometry width="50" height="50" relative="1" as="geometry">
            <mxPoint x="240" y="760" as="sourcePoint" />
            <mxPoint x="240" y="80" as="targetPoint" />
          </mxGeometry>
        </mxCell>
        <mxCell id="1fYOlu2X82X64J7lEpXC-43" value="OFFLINE&lt;div&gt;Proces&lt;span style=&quot;background-color: initial;&quot;&gt;sing of the data&lt;/span&gt;&lt;/div&gt;" style="text;html=1;align=center;verticalAlign=middle;resizable=0;points=[];autosize=1;strokeColor=none;fillColor=none;" vertex="1" parent="1">
          <mxGeometry x="369" y="715" width="140" height="40" as="geometry" />
        </mxCell>
        <mxCell id="1fYOlu2X82X64J7lEpXC-47" style="edgeStyle=orthogonalEdgeStyle;rounded=0;orthogonalLoop=1;jettySize=auto;html=1;exitX=0.25;exitY=1;exitDx=0;exitDy=0;entryX=0.25;entryY=0;entryDx=0;entryDy=0;" edge="1" parent="1" source="1fYOlu2X82X64J7lEpXC-44" target="1fYOlu2X82X64J7lEpXC-45">
          <mxGeometry relative="1" as="geometry" />
        </mxCell>
        <mxCell id="1fYOlu2X82X64J7lEpXC-44" value="Search query" style="rounded=0;whiteSpace=wrap;html=1;fillColor=#ffe6cc;strokeColor=#d79b00;" vertex="1" parent="1">
          <mxGeometry x="-80" y="160" width="120" height="60" as="geometry" />
        </mxCell>
        <mxCell id="1fYOlu2X82X64J7lEpXC-55" style="edgeStyle=orthogonalEdgeStyle;rounded=0;orthogonalLoop=1;jettySize=auto;html=1;exitX=0.75;exitY=0;exitDx=0;exitDy=0;entryX=0.75;entryY=1;entryDx=0;entryDy=0;" edge="1" parent="1" source="1fYOlu2X82X64J7lEpXC-45" target="1fYOlu2X82X64J7lEpXC-44">
          <mxGeometry relative="1" as="geometry" />
        </mxCell>
        <mxCell id="1fYOlu2X82X64J7lEpXC-45" value="Searcher" style="rounded=0;whiteSpace=wrap;html=1;fillColor=#ffe6cc;strokeColor=#d79b00;" vertex="1" parent="1">
          <mxGeometry x="-80" y="320" width="120" height="60" as="geometry" />
        </mxCell>
        <mxCell id="1fYOlu2X82X64J7lEpXC-50" value="" style="endArrow=classic;startArrow=classic;html=1;rounded=0;entryX=0;entryY=0;entryDx=0;entryDy=70;entryPerimeter=0;" edge="1" parent="1" target="1fYOlu2X82X64J7lEpXC-1">
          <mxGeometry width="50" height="50" relative="1" as="geometry">
            <mxPoint x="42" y="340" as="sourcePoint" />
            <mxPoint x="330" y="410" as="targetPoint" />
            <Array as="points">
              <mxPoint x="80" y="340" />
              <mxPoint x="80" y="200" />
            </Array>
          </mxGeometry>
        </mxCell>
        <mxCell id="1fYOlu2X82X64J7lEpXC-51" value="" style="endArrow=classic;startArrow=classic;html=1;rounded=0;exitX=1;exitY=0.75;exitDx=0;exitDy=0;entryX=0;entryY=0;entryDx=0;entryDy=180;entryPerimeter=0;" edge="1" parent="1" source="1fYOlu2X82X64J7lEpXC-45">
          <mxGeometry width="50" height="50" relative="1" as="geometry">
            <mxPoint x="52" y="369" as="sourcePoint" />
            <mxPoint x="330" y="320" as="targetPoint" />
            <Array as="points">
              <mxPoint x="110" y="365" />
              <mxPoint x="110" y="320" />
            </Array>
          </mxGeometry>
        </mxCell>
        <mxCell id="1fYOlu2X82X64J7lEpXC-53" value="Return the term mappings" style="text;html=1;align=center;verticalAlign=middle;resizable=0;points=[];autosize=1;strokeColor=none;fillColor=none;" vertex="1" parent="1">
          <mxGeometry x="130" y="330" width="160" height="30" as="geometry" />
        </mxCell>
        <mxCell id="1fYOlu2X82X64J7lEpXC-54" value="Search query" style="text;html=1;align=center;verticalAlign=middle;resizable=0;points=[];autosize=1;strokeColor=none;fillColor=none;" vertex="1" parent="1">
          <mxGeometry x="95" y="168" width="90" height="30" as="geometry" />
        </mxCell>
        <mxCell id="1fYOlu2X82X64J7lEpXC-56" value="search results" style="text;html=1;align=center;verticalAlign=middle;resizable=0;points=[];autosize=1;strokeColor=none;fillColor=none;" vertex="1" parent="1">
          <mxGeometry x="-20" y="228" width="100" height="30" as="geometry" />
        </mxCell>
        <mxCell id="1fYOlu2X82X64J7lEpXC-57" value="ONLINE Mode&lt;div&gt;when users are searching for the results&lt;/div&gt;" style="text;html=1;align=center;verticalAlign=middle;resizable=0;points=[];autosize=1;strokeColor=none;fillColor=none;" vertex="1" parent="1">
          <mxGeometry x="-130" y="710" width="240" height="40" as="geometry" />
        </mxCell>
      </root>
    </mxGraphModel>
  </diagram>
</mxfile>
